HIERARCHY
ROOT reference
{
	OFFSET 0.000000 0.000000 0.000000
	CHANNELS 6 Xposition Yposition Zposition Xrotation Yrotation Zrotation
	JOINT root
	{
		OFFSET 0.000000 88.267502 0.000000
		CHANNELS 3 Xrotation Yrotation Zrotation
		JOINT Hips
		{
			OFFSET 0.000000 0.000000 0.000000
			CHANNELS 3 Xrotation Yrotation Zrotation
			JOINT Spine
			{
				OFFSET 0.013598 -0.105469 -0.026472
				CHANNELS 3 Xrotation Yrotation Zrotation
				JOINT Spine1
				{
					OFFSET -5.027490 17.193298 4.853550
					CHANNELS 3 Xrotation Yrotation Zrotation
					JOINT Spine2
					{
						OFFSET -6.489560 17.043396 3.457120
						CHANNELS 3 Xrotation Yrotation Zrotation
						JOINT Neck
						{
							OFFSET -8.669389 15.586197 5.140711
							CHANNELS 3 Xrotation Yrotation Zrotation
							JOINT Head
							{
								OFFSET -6.523951 8.554825 4.152540
								CHANNELS 3 Xrotation Yrotation Zrotation
								End Site
								{
									OFFSET 0.000000 0.100006 0.000000
								}
							}
						}
						JOINT RightShoulder
						{
							OFFSET -11.633702 14.542297 3.299631
							CHANNELS 3 Xrotation Yrotation Zrotation
							JOINT RightArm
							{
								OFFSET -12.870300 -8.032135 -5.333379
								CHANNELS 3 Xrotation Yrotation Zrotation
								JOINT RightForearm
								{
									OFFSET -25.966301 -13.786201 -0.595353
									CHANNELS 3 Xrotation Yrotation Zrotation
									JOINT RightHand
									{
										OFFSET -20.889702 -1.520027 13.517000
										CHANNELS 3 Xrotation Yrotation Zrotation
										End Site
										{
											OFFSET 0.000000 0.099998 0.000000
										}
									}
								}
							}
						}
						JOINT LeftShoulder
						{
							OFFSET -5.713748 16.618195 6.992730
							CHANNELS 3 Xrotation Yrotation Zrotation
							JOINT LeftArm
							{
								OFFSET 14.245000 3.247314 6.718699
								CHANNELS 3 Xrotation Yrotation Zrotation
								JOINT LeftForearm
								{
									OFFSET 23.957703 -14.592697 -8.817431
									CHANNELS 3 Xrotation Yrotation Zrotation
									JOINT LeftHand
									{
										OFFSET 7.512081 -21.311096 10.526399
										CHANNELS 3 Xrotation Yrotation Zrotation
										End Site
										{
											OFFSET 0.000000 0.099998 0.000000
										}
									}
								}
							}
						}
					}
				}
			}
			JOINT RightUpLeg
			{
				OFFSET -8.373460 -0.383102 -4.593210
				CHANNELS 3 Xrotation Yrotation Zrotation
				JOINT RightLeg
				{
					OFFSET -19.965099 -39.044300 10.204901
					CHANNELS 3 Xrotation Yrotation Zrotation
					JOINT RightFoot
					{
						OFFSET -1.147751 -40.875702 -4.840429
						CHANNELS 3 Xrotation Yrotation Zrotation
						JOINT RightToe
						{
							OFFSET -13.504299 -6.853460 9.736710
							CHANNELS 3 Xrotation Yrotation Zrotation
							End Site
							{
								OFFSET 0.000000 0.100000 0.000000
							}
						}
					}
				}
			}
			JOINT LeftUpLeg
			{
				OFFSET 8.373440 0.383095 4.593220
				CHANNELS 3 Xrotation Yrotation Zrotation
				JOINT LeftLeg
				{
					OFFSET 13.247400 -42.688202 5.424768
					CHANNELS 3 Xrotation Yrotation Zrotation
					JOINT LeftFoot
					{
						OFFSET 12.334200 -37.687500 -11.094801
						CHANNELS 3 Xrotation Yrotation Zrotation
						JOINT LeftToe
						{
							OFFSET -0.239281 -7.519040 16.356800
							CHANNELS 3 Xrotation Yrotation Zrotation
							End Site
							{
								OFFSET 0.000000 0.100000 0.000000
							}
						}
					}
				}
			}
		}
	}
}
MOTION
Frames: 10
Frame Time: 0.041667
-99.723297 0.000000 -4.511252 -0.000000 0.000000 -0.000000 3.164512 0.916127 6.695271 0.039551 0.027335 -0.074355 0.980081 -0.297224 2.327439 1.353134 -0.147054 3.261568 0.890318 -0.032349 2.231099 -3.805868 0.682167 -3.922581 -3.419917 3.669955 -8.620115 -0.643128 6.929413 -6.975545 19.167924 -10.892303 -20.538850 6.320905 -10.395956 7.993526 -31.240992 7.472940 39.692944 -0.351332 3.227754 -1.596596 -12.814275 6.281994 3.235764 16.204072 21.562473 20.445259 -3.412929 1.111950 0.147667 -6.423515 14.887248 -21.313165 14.198656 -0.284144 17.989328 -13.215353 9.078841 -2.229279 -0.290174 -0.219982 3.747806 6.970321 2.740753 14.617302 -21.587882 -6.435685 -2.097473 17.600436 7.690451 -7.242832 -0.000004 0.000321 -0.000002 
-100.557999 0.000000 -4.765152 -0.000000 0.000000 -0.000000 3.198794 1.301149 6.908000 0.047436 0.032741 -0.089172 1.055836 -0.388603 2.289990 1.474877 -0.250867 3.213041 0.980276 -0.093714 2.198354 -3.791408 0.610658 -3.855186 -3.486361 3.514362 -8.535014 -0.592960 6.649794 -6.763246 18.195689 -10.874294 -20.429150 6.175545 -10.192930 7.816599 -30.126462 7.754404 39.090166 -0.178043 2.759182 -1.581105 -12.981035 5.097903 3.039024 15.731768 20.693877 19.779260 -2.955604 0.164312 0.303192 -6.382796 15.001189 -20.896469 14.118932 -0.295072 17.888045 -12.478358 8.911534 -2.747533 -0.288886 -0.231441 3.918083 6.555260 3.202304 13.918983 -21.557511 -6.434969 -2.097061 18.100155 7.754254 -7.193869 -0.000000 0.000529 -0.000000 
-101.083000 0.000000 -4.731602 -0.000000 0.000000 -0.000000 2.988506 1.442060 7.049743 0.055342 0.038241 -0.104035 1.113859 -0.467556 2.250440 1.569591 -0.341426 3.161288 1.051075 -0.147898 2.163241 -3.609497 0.587626 -3.797302 -3.248839 3.367879 -8.355524 -0.606477 6.553984 -6.609575 17.548627 -10.607980 -20.327234 6.080537 -10.059442 7.700820 -29.282148 8.112227 38.527762 -0.223795 2.710832 -1.465107 -12.776192 4.044832 3.061429 14.992221 19.372641 18.750626 -2.518952 -0.496980 0.109600 -6.197514 14.815783 -20.459879 13.987345 -0.312793 17.721073 -12.187921 8.914386 -3.064914 -0.287115 -0.242792 4.086996 6.347894 3.939502 13.475946 -21.548142 -6.434238 -2.096634 18.727351 7.791662 -7.680824 -0.000001 0.000751 -0.000002 
-101.874001 0.000000 -4.701622 -0.000000 0.000000 -0.000000 2.440089 1.452584 6.875058 0.071276 0.049175 -0.133967 1.155857 -0.501710 2.110173 1.632139 -0.368730 2.970726 1.097359 -0.159801 2.034089 -3.453077 0.517519 -3.558968 -3.198272 3.120303 -7.886705 -0.602981 6.271916 -6.270578 15.809943 -9.785631 -20.079747 6.126952 -10.124739 7.757397 -27.394921 8.456941 36.866977 -0.523886 2.793065 -0.980891 -13.228130 3.183132 3.017182 13.272317 16.470052 16.417917 -1.987393 -1.027311 -0.127065 -5.774300 13.933663 -19.304290 13.384781 -0.388940 16.956605 -12.081992 9.293235 -2.796858 -0.285309 -0.265044 4.418148 6.340962 5.011957 13.551498 -21.570069 -6.433545 -2.096187 19.280827 7.445526 -10.053950 -0.000000 0.000968 -0.000002 
-101.834000 0.000000 -4.692602 -0.000000 0.000000 -0.000000 2.187311 1.491268 6.645261 0.079262 0.054721 -0.148970 1.134200 -0.547565 2.005408 1.611405 -0.430934 2.827073 1.089156 -0.201683 1.935698 -3.504753 0.456068 -3.495178 -3.366831 3.034973 -7.829537 -0.586565 6.156935 -6.171948 14.732990 -9.349557 -19.915954 6.167404 -10.181475 7.806681 -26.116282 8.600662 35.726701 -0.635863 2.846336 -0.815297 -13.423191 3.176949 3.079967 12.461001 15.177220 15.342294 -1.825358 -1.180341 -0.085048 -5.261922 13.611257 -18.682258 12.789829 -0.456142 16.202233 -11.760993 9.369964 -2.571350 -0.283454 -0.275852 4.579074 7.095276 4.628365 13.590072 -21.537996 -6.432925 -2.095732 18.499053 7.311652 -10.129019 -0.000002 0.001166 -0.000000 
-101.575996 0.000000 -4.683803 -0.000000 0.000000 -0.000000 2.128746 2.458117 5.566718 0.025571 0.017639 -0.048070 0.982049 -0.744304 1.755032 1.466396 -0.798393 2.462152 1.020561 -0.456379 1.683169 -3.510301 0.219849 -3.042281 -3.822320 2.548323 -7.169592 -0.657345 5.878235 -5.637682 12.488505 -9.258005 -19.232810 5.856082 -9.741566 7.426854 -22.693720 8.791393 32.698991 -0.905276 2.990139 -0.426261 -12.770147 2.606075 3.139697 10.929108 12.858429 13.347886 -1.837720 -0.649657 -0.117034 -3.803696 13.301558 -16.844724 10.649255 -0.632574 13.491138 -10.635696 8.117705 -2.040828 -0.281562 -0.296610 4.888429 6.683981 4.472465 13.570722 -21.538028 -6.432418 -2.095286 20.234955 8.326854 -10.222912 0.000001 0.001331 0.000000 
-101.032997 0.000000 -4.849982 -0.000000 0.000000 -0.000000 2.006528 3.833469 5.130190 0.103288 0.071195 -0.194085 0.931232 -1.013644 1.579721 1.428365 -1.096854 2.242615 1.018213 -0.658687 1.531249 -3.408485 -0.116364 -2.644616 -4.081086 1.819149 -6.597886 -0.700553 5.536799 -5.095847 10.977734 -10.012784 -18.525611 5.425083 -9.121133 6.898997 -20.772682 8.788532 30.958594 -0.938231 2.789375 -0.224482 -12.253719 2.251956 2.687183 9.946710 11.449551 12.090447 -1.570709 -0.830123 -0.088797 -2.714750 12.535082 -15.699214 9.077411 -0.697386 11.502165 -9.909604 6.834404 -1.557528 -0.279627 -0.306486 5.035635 6.701669 2.326614 13.602337 -21.537977 -6.432421 -2.094853 21.359933 8.350475 -11.693188 0.000001 0.001449 -0.000000 
-98.649696 0.000000 -4.999813 -0.000000 0.000000 -0.000000 2.215425 7.570402 3.533013 0.119261 0.082159 -0.224078 0.723646 -1.589920 1.325647 1.259338 -1.919416 1.895569 0.965797 -1.223558 1.288147 -2.961928 -0.843998 -1.756020 -4.278452 0.111510 -5.229557 -0.868245 4.937961 -3.885969 8.057014 -12.247409 -16.672372 4.433052 -7.640863 5.674647 -17.644139 8.185642 27.424780 -0.874115 2.097877 0.144696 -10.817013 1.401285 1.539366 7.761364 8.517529 9.345090 -0.669144 -1.919311 0.268825 -0.229856 9.933517 -12.501784 4.253391 -0.555395 5.398103 -7.547041 3.851370 1.263376 -0.277105 -0.325023 5.312238 6.100261 -3.303760 12.725605 -21.475703 -6.415353 -2.094430 17.983876 3.856537 -15.071038 0.000003 0.001502 -0.000000 
-96.027901 0.000000 -5.485753 -0.000000 0.000000 -0.000000 2.236058 9.241191 2.291608 0.094095 0.064866 -0.176823 0.674206 -1.755867 1.327261 1.233275 -2.186115 1.890773 0.966811 -1.405793 1.283031 -2.648087 -1.257621 -1.244150 -4.261561 -0.921067 -4.407866 -0.696949 4.225158 -3.453236 7.090133 -12.798127 -15.481098 4.053484 -7.054417 5.202480 -16.314559 7.459565 25.573521 -0.737595 1.684949 0.183572 -9.780035 0.684112 1.265351 6.523892 6.971617 7.817335 -0.555474 -1.576391 0.170017 1.597382 8.608960 -10.207517 0.939624 -0.157862 1.194826 -5.929932 2.353752 3.766074 1.361427 -0.413413 4.296224 5.500259 -4.586201 11.666582 -21.489910 -6.419233 -2.094056 16.847968 2.832466 -11.685581 -0.000002 0.001475 -0.000001 
-94.266098 0.000000 -5.795563 -0.000000 0.000000 -0.000000 2.200697 10.106949 0.946560 0.043842 0.030289 -0.082420 0.608876 -1.702888 1.343562 1.147929 -2.179249 1.896969 0.908484 -1.407060 1.286922 -2.207646 -1.580529 -0.715033 -3.972537 -1.862019 -3.427035 -0.368558 3.306359 -3.198402 6.464852 -12.609904 -13.962591 3.656366 -6.428508 4.706162 -15.133782 6.745805 23.743052 -0.554308 1.163341 0.211022 -8.381781 0.007522 1.476344 5.288322 5.504662 6.308556 -0.557969 -1.052589 0.035975 3.840599 7.977396 -7.766483 -2.971586 0.633442 -3.790963 -3.381116 0.953245 7.241541 1.207607 -0.359384 3.385716 5.841254 -5.944083 11.439636 -21.502942 -6.418484 -2.093702 15.944441 3.088224 -9.689881 0.036091 0.001354 0.096956 
